<svg xmlns="http://www.w3.org/2000/svg">
  <symbol id="icon-food" viewBox="0 0 24 24">
    <path fill="#d8b66a" d="M7 3h2v8a2 2 0 0 1-1 1.7V21H6v-8.3A2 2 0 0 1 5 11V3h2v6h1V3Zm5 0h2v18h-2v-7h-1.5A2.5 2.5 0 0 1 8 11.5v-6A2.5 2.5 0 0 1 10.5 3H12Zm6 0c1.7 1.7 2.5 3.8 2.5 6.2 0 2.1-.7 3.7-2 4.7V21h-2v-6.4c-1.6-.7-2.5-2.4-2.5-5.1C14 7 15.3 4.8 18 3Z"/>
  </symbol>
  <symbol id="icon-water" viewBox="0 0 24 24">
    <path fill="#66bde8" d="M12 2c4 4.5 6 7.9 6 10.4A6 6 0 1 1 6 12.4C6 9.9 8 6.5 12 2Zm-3.2 11.2a3.2 3.2 0 0 0 4.7 2.8 5 5 0 0 1-4.1-5.5 4.6 4.6 0 0 0-.6 2.7Z"/>
  </symbol>
  <symbol id="icon-material" viewBox="0 0 24 24">
    <path fill="#c7c9bd" d="M3 7.5 12 3l9 4.5-9 4.5-9-4.5Zm2 3.3 7 3.5 7-3.5V16l-7 3.5L5 16v-5.2Z"/>
  </symbol>
  <symbol id="icon-coal" viewBox="0 0 24 24">
    <path fill="#4a4d46" d="m5 10 4-6 7 1 4 6-2 7-8 3-6-5 1-6Z"/>
    <path fill="#8f9589" d="m9 6 4 1-3 4-4 1 3-6Zm5 2 4 3-5 1-2-1 3-3Zm-4 6 3 1 3-1-1 3-5 2-3-3 3-2Z"/>
  </symbol>
  <symbol id="icon-morale" viewBox="0 0 24 24">
    <path fill="#e9a0a0" d="M12 21C6.5 17.5 3 14.1 3 9.8A4.8 4.8 0 0 1 11.3 6 4.8 4.8 0 0 1 21 9.8c0 4.3-3.5 7.7-9 11.2Z"/>
  </symbol>
  <symbol id="icon-pause" viewBox="0 0 24 24">
    <path fill="#d9d2b7" d="M6 4h4v16H6V4Zm8 0h4v16h-4V4Z"/>
  </symbol>
  <symbol id="icon-play" viewBox="0 0 24 24">
    <path fill="#9ed99b" d="M7 4v16l13-8L7 4Z"/>
  </symbol>
  <symbol id="icon-home" viewBox="0 0 24 24">
    <path fill="#d9d2b7" d="M3 11.5 12 4l9 7.5-1.3 1.5-1.7-1.4V20h-5v-5h-2v5H6v-8.4L4.3 13 3 11.5Zm5 6.5h1v-5h6v5h1v-8.1l-4-3.3-4 3.3V18Z"/>
  </symbol>
  <symbol id="icon-scout" viewBox="0 0 24 24">
    <path fill="#9fc0ba" d="M12 3 4 6v6c0 4.6 3.2 7.8 8 9 4.8-1.2 8-4.4 8-9V6l-8-3Zm0 4a4 4 0 1 1 0 8 4 4 0 0 1 0-8Zm0 2a2 2 0 1 0 0 4 2 2 0 0 0 0-4Z"/>
  </symbol>
  <symbol id="icon-shield" viewBox="0 0 24 24">
    <path fill="#b7c5c2" d="M12 2 4 5v6c0 5.1 3.4 8.9 8 11 4.6-2.1 8-5.9 8-11V5l-8-3Zm0 4 4 1.5V11c0 2.7-1.6 5-4 6.6V6Z"/>
  </symbol>
  <symbol id="icon-profile-no-data" viewBox="0 0 24 24">
    <path fill="#9fc0ba" d="M12 3a7 7 0 0 1 7 7c0 4.2-3.3 6.8-6 8.9V22h-2v-4.2c2.8-2.2 6-4.4 6-7.8a5 5 0 1 0-9.8 1.2l-1.9.6A7 7 0 0 1 12 3Z"/>
    <path fill="#d9d2b7" d="M11 10.9c0-2 1.4-3.4 3.5-3.4 1.9 0 3.2 1.1 3.2 2.8 0 1.1-.6 1.9-1.7 2.6l-1.1.7c-.7.4-.9.8-.9 1.5v.4h-2v-.6c0-1.2.5-2.1 1.7-2.8l1-.6c.7-.4 1-.7 1-1.2 0-.6-.5-1-1.3-1-.9 0-1.5.6-1.5 1.6H11Zm1 6.2h2.2v2.2H12v-2.2Z"/>
  </symbol>
  <symbol id="icon-profile-balanced" viewBox="0 0 24 24">
    <path fill="#d8c890" d="M11 3h2v3h5v2h-5v11h4v2H7v-2h4V8H6V6h5V3Z"/>
    <path fill="#9fc0ba" d="M6 8h5l-2.5 6H3.5L6 8Zm7 0h5l2.5 6h-5L13 8Z"/>
    <path fill="#56645d" d="M3.5 14h5c-.3 1.6-1.2 2.5-2.5 2.5S3.8 15.6 3.5 14Zm12 0h5c-.3 1.6-1.2 2.5-2.5 2.5s-2.2-.9-2.5-2.5Z"/>
  </symbol>
  <symbol id="icon-profile-philanthropist" viewBox="0 0 24 24">
    <path fill="#e9a0a0" d="M12 10.8C9.6 9.2 8 7.7 8 5.8A2.8 2.8 0 0 1 12 3.3a2.8 2.8 0 0 1 4 2.5c0 1.9-1.6 3.4-4 5Z"/>
    <path fill="#d8b66a" d="M4 13.8c1.9-1.2 3.8-1.4 5.6-.6l2 .9c.7.3.9.9.7 1.4-.2.6-.8.8-1.5.6l-2.2-.7-.6 1.8 2.2.7c1.6.5 3 .2 3.8-.8l2.5-2.7c.8-.9 1.7-.8 2.3-.2.5.5.5 1.2-.1 1.9l-4.2 4.6c-.7.8-1.6 1.1-2.7.8l-4.7-1.4L4 21.4v-7.6Z"/>
  </symbol>
  <symbol id="icon-profile-principled" viewBox="0 0 24 24">
    <path fill="#d8c890" d="M12 3 5 6v2h14V6l-7-3ZM7 10h2v7H7v-7Zm4 0h2v7h-2v-7Zm4 0h2v7h-2v-7ZM5 19h14v2H5v-2Z"/>
    <path fill="#f3edda" d="M12 5.6 9.8 6.5h4.4L12 5.6Z"/>
  </symbol>
  <symbol id="icon-profile-merciful" viewBox="0 0 24 24">
    <path fill="#9ed99b" d="M12 3a5 5 0 0 1 5 5c0 3.2-2.5 5.4-5 7.2C9.5 13.4 7 11.2 7 8a5 5 0 0 1 5-5Zm-1 2.8v2H9v2h2v2h2v-2h2v-2h-2v-2h-2Z"/>
    <path fill="#d8b66a" d="M4 15.4c1.4-.8 2.8-.9 4.2-.3l3.8 1.7 3.8-1.7c1.4-.6 2.8-.5 4.2.3v2.1L12 22 4 17.5v-2.1Z"/>
  </symbol>
  <symbol id="icon-profile-security" viewBox="0 0 24 24">
    <path fill="#b7c5c2" d="M12 2 5 5v5.6c0 4.8 2.9 8.4 7 10.4 4.1-2 7-5.6 7-10.4V5l-7-3Z"/>
    <path fill="#4a4d46" d="M8 11h8v6H8v-6Zm1.5-1.5V8.3a2.5 2.5 0 0 1 5 0v1.2h-2V8.3a.5.5 0 0 0-1 0v1.2h-2Z"/>
    <path fill="#e0c46f" d="M12 12.7a1 1 0 0 1 .5 1.9V16h-1v-1.4a1 1 0 0 1 .5-1.9Z"/>
  </symbol>
  <symbol id="icon-profile-open" viewBox="0 0 24 24">
    <path fill="#d8b66a" d="M5 4h6v16H5V4Zm8 2.5L19 4v16l-6-2.5v-11Z"/>
    <path fill="#3b331d" opacity=".45" d="M7 6h2v12H7V6Zm8 2 2-.8v9.6l-2-.8V8Z"/>
    <path fill="#f1df9a" d="M11 11h3v2h-3v-2Z"/>
  </symbol>
  <symbol id="icon-profile-cautious" viewBox="0 0 24 24">
    <path fill="#d2a94d" d="M12 3 2.8 20h18.4L12 3Z"/>
    <path fill="#201a0d" d="M11 9h2v5h-2V9Zm0 7h2v2h-2v-2Z"/>
    <path fill="#f3edda" opacity=".4" d="M12 6.8 5.8 18h12.4L12 6.8Z"/>
  </symbol>
  <symbol id="icon-crisis-rain" viewBox="0 0 24 24">
    <path fill="#9fc0ba" d="M7.8 16H6a4 4 0 0 1-.6-7.9A5.7 5.7 0 0 1 16.3 6 4.9 4.9 0 0 1 17 16H7.8Z"/>
    <path fill="#66bde8" d="M8 17h2l-1.4 4H6.7L8 17Zm4 0h2l-1.4 4h-1.9l1.3-4Zm4 0h2l-1.4 4h-1.9l1.3-4Z"/>
  </symbol>
  <symbol id="icon-crisis-snow" viewBox="0 0 24 24">
    <path fill="#d9f1ff" d="M11 3h2v5.1l3.6-3.6L18 5.9l-4.2 4.2H20v2h-6.2l4.2 4.2-1.4 1.4L13 14.1V21h-2v-6.9l-3.6 3.6L6 16.3l4.2-4.2H4v-2h6.2L6 5.9l1.4-1.4L11 8.1V3Z"/>
    <circle fill="#86c4df" cx="12" cy="11.1" r="2.1"/>
  </symbol>
  <symbol id="icon-crisis-radiation" viewBox="0 0 24 24">
    <circle fill="#201a0d" opacity=".38" cx="12" cy="12" r="8.5"/>
    <circle fill="#e0c46f" cx="12" cy="12" r="2.2"/>
    <path fill="#d26858" d="M11 3h2l1 6.5a3.9 3.9 0 0 0-4 0L11 3Zm5.1 8 5.8 3.1-1 1.8-6-2.6a4 4 0 0 0 1.2-2.3ZM9.1 13.3l-6 2.6-1-1.8L7.9 11a4 4 0 0 0 1.2 2.3Zm1.3 2.3c1 .4 2.2.4 3.2 0l1.9 5.7-1.9.7L12 17.1 10.4 22l-1.9-.7 1.9-5.7Z"/>
  </symbol>
  <symbol id="icon-crisis-countdown" viewBox="0 0 24 24">
    <path fill="#d9d2b7" d="M9 2h6v2H9V2Zm2 8h2v4.1l2.8 1.7-1 1.7-3.8-2.3V10Z"/>
    <path fill="#e0c46f" d="M12 5a8 8 0 1 1 0 16 8 8 0 0 1 0-16Zm0 2a6 6 0 1 0 0 12 6 6 0 0 0 0-12Z"/>
    <path fill="#d26858" d="M18.6 4.2 20 5.6l-2 2-1.4-1.4 2-2Z"/>
  </symbol>
  <symbol id="icon-crisis-shelter" viewBox="0 0 24 24">
    <path fill="#d8b66a" d="M3 11 12 4l9 7-1.3 1.6-1.2-.9V20h-13v-8.3l-1.2.9L3 11Z"/>
    <path fill="#201a0d" opacity=".45" d="M8 12h8v8H8v-8Zm2 2v6h4v-6h-4Z"/>
    <path fill="#86c4df" d="M12 5.9 6.4 10.2h11.2L12 5.9Z"/>
  </symbol>
  <symbol id="icon-crisis-homeless" viewBox="0 0 24 24">
    <path fill="#d8b66a" d="M4 13 12 5l8 8-1.4 1.4L12 7.8l-6.6 6.6L4 13Z"/>
    <path fill="#201a0d" opacity=".45" d="M7 13h10v8H7v-8Zm3 3h4v5h-4v-5Z"/>
    <path fill="#f1df9a" d="M12 2.8 21.2 12l-1.4 1.4L12 5.6l-7.8 7.8L2.8 12 12 2.8Z"/>
    <circle fill="#d9d2b7" cx="12" cy="12.2" r="2.1"/>
  </symbol>
  <symbol id="icon-crisis-injured" viewBox="0 0 24 24">
    <path fill="#e9a0a0" d="M12 21C6.5 17.5 3 14.1 3 9.8A4.8 4.8 0 0 1 11.3 6 4.8 4.8 0 0 1 21 9.8c0 4.3-3.5 7.7-9 11.2Z"/>
    <path fill="#f5efdf" d="M11 7h2v4h4v2h-4v4h-2v-4H7v-2h4V7Z"/>
  </symbol>
  <symbol id="icon-build" viewBox="0 0 24 24">
    <path fill="#d2a94d" d="M4 20h16v-2H4v2Zm2-4h5V8H6v8Zm7 0h5V4h-5v12ZM8 6h2V4H8v2Zm7-4h1v2h-1V2Z"/>
  </symbol>
  <symbol id="icon-people" viewBox="0 0 24 24">
    <path fill="#d7bb72" d="M8 11a4 4 0 1 1 0-8 4 4 0 0 1 0 8Zm8.5 1a3.5 3.5 0 1 1 0-7 3.5 3.5 0 0 1 0 7ZM2 21v-2.5C2 15.5 4.7 13 8 13s6 2.5 6 5.5V21H2Zm13.4 0v-2.5c0-1.7-.6-3.2-1.7-4.4.8-.4 1.7-.6 2.8-.6 3 0 5.5 2.2 5.5 5V21h-6.6Z"/>
  </symbol>
  <symbol id="icon-clock" viewBox="0 0 24 24">
    <path fill="#d9d2b7" d="M12 2a10 10 0 1 1 0 20 10 10 0 0 1 0-20Zm0 2.2a7.8 7.8 0 1 0 0 15.6 7.8 7.8 0 0 0 0-15.6Zm1 3.3v4.2l3.4 2-.9 1.6L11 12.7V7.5h2Z"/>
  </symbol>
  <symbol id="icon-fist" viewBox="0 0 24 24">
    <path fill="#d26858" d="M7.2 3.2c1 0 1.8.8 1.8 1.8v3h.8V4.4c0-1 .8-1.8 1.8-1.8s1.8.8 1.8 1.8V8h.8V5c0-1 .8-1.8 1.8-1.8s1.8.8 1.8 1.8v3h.5c1.3 0 2.3 1 2.3 2.3v4.6c0 4.1-2.9 6.9-7.4 6.9H9.6c-3.7 0-6.2-2.3-6.2-5.8v-3.4c0-1 .8-1.8 1.8-1.8H7V5c0-1 .8-1.8 1.8-1.8Zm.1 10.1H5.5V16c0 2.2 1.6 3.6 4.1 3.6h3.6c3.2 0 5.2-1.8 5.2-4.7v-4.4c0-.3-.2-.5-.5-.5H7.3v3.3Z"/>
    <path fill="#3b1614" opacity=".35" d="M7.4 10h10.5c.3 0 .5.2.5.5v1H7.4V10Zm-1.9 3.3h11.9v1.9H5.5v-1.9Z"/>
  </symbol>
  <symbol id="icon-archive" viewBox="0 0 24 24">
    <path fill="#d9d2b7" d="M4 3h16v5H4V3Zm2 2v1h12V5H6Zm-1 5h14v10H5V10Zm2 2v6h10v-6H7Z"/>
    <path fill="#e0c46f" d="M9 13h6v2H9v-2Z"/>
  </symbol>
  <symbol id="icon-close" viewBox="0 0 24 24">
    <path fill="#d9d2b7" d="m6.4 5 5.6 5.6L17.6 5 19 6.4 13.4 12l5.6 5.6-1.4 1.4-5.6-5.6L6.4 19 5 17.6l5.6-5.6L5 6.4 6.4 5Z"/>
  </symbol>
</svg>
