<svg xmlns="http://www.w3.org/2000/svg">
  <symbol id="icon-food" viewBox="0 0 24 24">
    <path fill="#d8b66a" d="M7 3h2v8a2 2 0 0 1-1 1.7V21H6v-8.3A2 2 0 0 1 5 11V3h2v6h1V3Zm5 0h2v18h-2v-7h-1.5A2.5 2.5 0 0 1 8 11.5v-6A2.5 2.5 0 0 1 10.5 3H12Zm6 0c1.7 1.7 2.5 3.8 2.5 6.2 0 2.1-.7 3.7-2 4.7V21h-2v-6.4c-1.6-.7-2.5-2.4-2.5-5.1C14 7 15.3 4.8 18 3Z"/>
  </symbol>
  <symbol id="icon-water" viewBox="0 0 24 24">
    <path fill="#66bde8" d="M12 2c4 4.5 6 7.9 6 10.4A6 6 0 1 1 6 12.4C6 9.9 8 6.5 12 2Zm-3.2 11.2a3.2 3.2 0 0 0 4.7 2.8 5 5 0 0 1-4.1-5.5 4.6 4.6 0 0 0-.6 2.7Z"/>
  </symbol>
  <symbol id="icon-material" viewBox="0 0 24 24">
    <path fill="#c7c9bd" d="M3 7.5 12 3l9 4.5-9 4.5-9-4.5Zm2 3.3 7 3.5 7-3.5V16l-7 3.5L5 16v-5.2Z"/>
  </symbol>
  <symbol id="icon-coal" viewBox="0 0 24 24">
    <path fill="#4a4d46" d="m5 10 4-6 7 1 4 6-2 7-8 3-6-5 1-6Z"/>
    <path fill="#8f9589" d="m9 6 4 1-3 4-4 1 3-6Zm5 2 4 3-5 1-2-1 3-3Zm-4 6 3 1 3-1-1 3-5 2-3-3 3-2Z"/>
  </symbol>
  <symbol id="icon-morale" viewBox="0 0 24 24">
    <path fill="#e9a0a0" d="M12 21C6.5 17.5 3 14.1 3 9.8A4.8 4.8 0 0 1 11.3 6 4.8 4.8 0 0 1 21 9.8c0 4.3-3.5 7.7-9 11.2Z"/>
  </symbol>
  <symbol id="icon-pause" viewBox="0 0 24 24">
    <path fill="#d9d2b7" d="M6 4h4v16H6V4Zm8 0h4v16h-4V4Z"/>
  </symbol>
  <symbol id="icon-play" viewBox="0 0 24 24">
    <path fill="#9ed99b" d="M7 4v16l13-8L7 4Z"/>
  </symbol>
  <symbol id="icon-home" viewBox="0 0 24 24">
    <path fill="#d9d2b7" d="M3 11.5 12 4l9 7.5-1.3 1.5-1.7-1.4V20h-5v-5h-2v5H6v-8.4L4.3 13 3 11.5Zm5 6.5h1v-5h6v5h1v-8.1l-4-3.3-4 3.3V18Z"/>
  </symbol>
  <symbol id="icon-scout" viewBox="0 0 24 24">
    <path fill="#9fc0ba" d="M12 3 4 6v6c0 4.6 3.2 7.8 8 9 4.8-1.2 8-4.4 8-9V6l-8-3Zm0 4a4 4 0 1 1 0 8 4 4 0 0 1 0-8Zm0 2a2 2 0 1 0 0 4 2 2 0 0 0 0-4Z"/>
  </symbol>
  <symbol id="icon-shield" viewBox="0 0 24 24">
    <path fill="#b7c5c2" d="M12 2 4 5v6c0 5.1 3.4 8.9 8 11 4.6-2.1 8-5.9 8-11V5l-8-3Zm0 4 4 1.5V11c0 2.7-1.6 5-4 6.6V6Z"/>
  </symbol>
  <symbol id="icon-build" viewBox="0 0 24 24">
    <path fill="#d2a94d" d="M4 20h16v-2H4v2Zm2-4h5V8H6v8Zm7 0h5V4h-5v12ZM8 6h2V4H8v2Zm7-4h1v2h-1V2Z"/>
  </symbol>
  <symbol id="icon-people" viewBox="0 0 24 24">
    <path fill="#d7bb72" d="M8 11a4 4 0 1 1 0-8 4 4 0 0 1 0 8Zm8.5 1a3.5 3.5 0 1 1 0-7 3.5 3.5 0 0 1 0 7ZM2 21v-2.5C2 15.5 4.7 13 8 13s6 2.5 6 5.5V21H2Zm13.4 0v-2.5c0-1.7-.6-3.2-1.7-4.4.8-.4 1.7-.6 2.8-.6 3 0 5.5 2.2 5.5 5V21h-6.6Z"/>
  </symbol>
  <symbol id="icon-clock" viewBox="0 0 24 24">
    <path fill="#d9d2b7" d="M12 2a10 10 0 1 1 0 20 10 10 0 0 1 0-20Zm0 2.2a7.8 7.8 0 1 0 0 15.6 7.8 7.8 0 0 0 0-15.6Zm1 3.3v4.2l3.4 2-.9 1.6L11 12.7V7.5h2Z"/>
  </symbol>
  <symbol id="icon-fist" viewBox="0 0 24 24">
    <path fill="#d26858" d="M7.2 3.2c1 0 1.8.8 1.8 1.8v3h.8V4.4c0-1 .8-1.8 1.8-1.8s1.8.8 1.8 1.8V8h.8V5c0-1 .8-1.8 1.8-1.8s1.8.8 1.8 1.8v3h.5c1.3 0 2.3 1 2.3 2.3v4.6c0 4.1-2.9 6.9-7.4 6.9H9.6c-3.7 0-6.2-2.3-6.2-5.8v-3.4c0-1 .8-1.8 1.8-1.8H7V5c0-1 .8-1.8 1.8-1.8Zm.1 10.1H5.5V16c0 2.2 1.6 3.6 4.1 3.6h3.6c3.2 0 5.2-1.8 5.2-4.7v-4.4c0-.3-.2-.5-.5-.5H7.3v3.3Z"/>
    <path fill="#3b1614" opacity=".35" d="M7.4 10h10.5c.3 0 .5.2.5.5v1H7.4V10Zm-1.9 3.3h11.9v1.9H5.5v-1.9Z"/>
  </symbol>
  <symbol id="icon-archive" viewBox="0 0 24 24">
    <path fill="#d9d2b7" d="M4 3h16v5H4V3Zm2 2v1h12V5H6Zm-1 5h14v10H5V10Zm2 2v6h10v-6H7Z"/>
    <path fill="#e0c46f" d="M9 13h6v2H9v-2Z"/>
  </symbol>
  <symbol id="icon-close" viewBox="0 0 24 24">
    <path fill="#d9d2b7" d="m6.4 5 5.6 5.6L17.6 5 19 6.4 13.4 12l5.6 5.6-1.4 1.4-5.6-5.6L6.4 19 5 17.6l5.6-5.6L5 6.4 6.4 5Z"/>
  </symbol>
</svg>
