<svg xmlns="http://www.w3.org/2000/svg">
  <symbol id="icon-food" viewBox="0 0 24 24">
    <path fill="#d8b66a" d="M7 3h2v8a2 2 0 0 1-1 1.7V21H6v-8.3A2 2 0 0 1 5 11V3h2v6h1V3Zm5 0h2v18h-2v-7h-1.5A2.5 2.5 0 0 1 8 11.5v-6A2.5 2.5 0 0 1 10.5 3H12Zm6 0c1.7 1.7 2.5 3.8 2.5 6.2 0 2.1-.7 3.7-2 4.7V21h-2v-6.4c-1.6-.7-2.5-2.4-2.5-5.1C14 7 15.3 4.8 18 3Z"/>
  </symbol>
  <symbol id="icon-water" viewBox="0 0 24 24">
    <path fill="#66bde8" d="M12 2c4 4.5 6 7.9 6 10.4A6 6 0 1 1 6 12.4C6 9.9 8 6.5 12 2Zm-3.2 11.2a3.2 3.2 0 0 0 4.7 2.8 5 5 0 0 1-4.1-5.5 4.6 4.6 0 0 0-.6 2.7Z"/>
  </symbol>
  <symbol id="icon-material" viewBox="0 0 24 24">
    <path fill="#c7c9bd" d="M3 7.5 12 3l9 4.5-9 4.5-9-4.5Zm2 3.3 7 3.5 7-3.5V16l-7 3.5L5 16v-5.2Z"/>
  </symbol>
  <symbol id="icon-energy" viewBox="0 0 24 24">
    <path fill="#f0ce55" d="M13 2 4 14h7l-1 8 10-13h-7l2-7h-2Z"/>
  </symbol>
  <symbol id="icon-morale" viewBox="0 0 24 24">
    <path fill="#e9a0a0" d="M12 21C6.5 17.5 3 14.1 3 9.8A4.8 4.8 0 0 1 11.3 6 4.8 4.8 0 0 1 21 9.8c0 4.3-3.5 7.7-9 11.2Z"/>
  </symbol>
  <symbol id="icon-pause" viewBox="0 0 24 24">
    <path fill="#d9d2b7" d="M6 4h4v16H6V4Zm8 0h4v16h-4V4Z"/>
  </symbol>
  <symbol id="icon-play" viewBox="0 0 24 24">
    <path fill="#9ed99b" d="M7 4v16l13-8L7 4Z"/>
  </symbol>
  <symbol id="icon-save" viewBox="0 0 24 24">
    <path fill="#c9c2aa" d="M4 4h13l3 3v13H4V4Zm3 2v5h9V6H7Zm1 9v3h8v-3H8Z"/>
  </symbol>
  <symbol id="icon-load" viewBox="0 0 24 24">
    <path fill="#b7cbd0" d="M12 3a9 9 0 1 1-8.5 6h2.2A7 7 0 1 0 8 5.7V9H3V4h3.3A9 9 0 0 1 12 3Zm1 5v4h3v2h-5V8h2Z"/>
  </symbol>
  <symbol id="icon-reset" viewBox="0 0 24 24">
    <path fill="#d9857b" d="M6 5h12v2H6V5Zm1 4h10l-.8 11H7.8L7 9Zm3-6h4l1 1H9l1-1Z"/>
  </symbol>
  <symbol id="icon-scout" viewBox="0 0 24 24">
    <path fill="#9fc0ba" d="M12 3 4 6v6c0 4.6 3.2 7.8 8 9 4.8-1.2 8-4.4 8-9V6l-8-3Zm0 4a4 4 0 1 1 0 8 4 4 0 0 1 0-8Zm0 2a2 2 0 1 0 0 4 2 2 0 0 0 0-4Z"/>
  </symbol>
  <symbol id="icon-shield" viewBox="0 0 24 24">
    <path fill="#b7c5c2" d="M12 2 4 5v6c0 5.1 3.4 8.9 8 11 4.6-2.1 8-5.9 8-11V5l-8-3Zm0 4 4 1.5V11c0 2.7-1.6 5-4 6.6V6Z"/>
  </symbol>
  <symbol id="icon-build" viewBox="0 0 24 24">
    <path fill="#d2a94d" d="M4 20h16v-2H4v2Zm2-4h5V8H6v8Zm7 0h5V4h-5v12ZM8 6h2V4H8v2Zm7-4h1v2h-1V2Z"/>
  </symbol>
  <symbol id="icon-people" viewBox="0 0 24 24">
    <path fill="#d7bb72" d="M8 11a4 4 0 1 1 0-8 4 4 0 0 1 0 8Zm8.5 1a3.5 3.5 0 1 1 0-7 3.5 3.5 0 0 1 0 7ZM2 21v-2.5C2 15.5 4.7 13 8 13s6 2.5 6 5.5V21H2Zm13.4 0v-2.5c0-1.7-.6-3.2-1.7-4.4.8-.4 1.7-.6 2.8-.6 3 0 5.5 2.2 5.5 5V21h-6.6Z"/>
  </symbol>
  <symbol id="icon-day" viewBox="0 0 24 24">
    <path fill="#f1d577" d="M12 5a7 7 0 1 1 0 14 7 7 0 0 1 0-14Zm0-4h2v3h-2V1ZM4.2 2.8 6.3 5 4.9 6.4 2.7 4.3l1.5-1.5ZM1 11h3v2H1v-2Zm2.8 8.8 2.1-2.1 1.4 1.4-2.1 2.1-1.4-1.4ZM11 20h2v3h-2v-3Zm7.1-1.1 1.4-1.4 2.1 2.1-1.4 1.4-2.1-2.1ZM20 11h3v2h-3v-2Zm-1.7-4.8-1.4-1.4 2.1-2.1 1.4 1.4-2.1 2.1Z"/>
  </symbol>
  <symbol id="icon-close" viewBox="0 0 24 24">
    <path fill="#d9d2b7" d="m6.4 5 5.6 5.6L17.6 5 19 6.4 13.4 12l5.6 5.6-1.4 1.4-5.6-5.6L6.4 19 5 17.6l5.6-5.6L5 6.4 6.4 5Z"/>
  </symbol>
</svg>
